Coordinates
version=1
nRows=15
nColumns=34
inDegrees=yes

Units are S.I. units (second, meters, Newtons, ...)
If the header above contains a line with 'inDegrees', this indicates whether rotational values are in degrees (yes) or radians (no).

endheader
time	pelvis_tilt	pelvis_list	pelvis_rotation	pelvis_tx	pelvis_ty	pelvis_tz	hip_flexion_r	hip_adduction_r	hip_rotation_r	knee_angle_r	ankle_angle_r	subtalar_angle_r	mtp_angle_r	hip_flexion_l	hip_adduction_l	hip_rotation_l	knee_angle_l	ankle_angle_l	subtalar_angle_l	mtp_angle_l	lumbar_extension	lumbar_bending	lumbar_rotation	arm_flex_r	arm_add_r	arm_rot_r	elbow_flex_r	pro_sup_r	arm_flex_l	arm_add_l	arm_rot_l	elbow_flex_l	pro_sup_l
      1.90566040	     -4.97970343	     -1.72380691	    225.59218694	     -2.47972319	      1.16029955	      0.70859786	     16.92769877	      3.44224203	     -1.71667962	     35.55183823	     18.71403382	     -5.82167688	      0.00000000	     15.90743464	     -5.12679698	      1.12362244	     76.14393710	     12.10945456	     -1.76028567	      0.00000000	    -11.32027407	      0.35520049	      1.54352658	     -8.36809313	    -12.70478352	    -15.50067985	     48.12977297	    119.74817918	   -369.45978178	    -15.72478505	   -354.63745811	    109.49915869	    119.32268361
      1.92452830	     -4.95964654	     -1.65143036	    225.87398435	     -2.48320616	      1.16203808	      0.71825781	     16.28266741	      3.00780594	     -1.82416822	     34.94649869	     18.49871329	     -5.43315774	      0.00000000	     16.74825951	     -5.15641193	      0.97088931	     75.89610203	     12.64191758	     -2.29022515	      0.00000000	    -11.19609239	      0.68741002	      1.89816694	     -7.30266366	    -13.46976507	    -13.33543347	     50.15415679	    119.74817918	   -369.74148306	    -16.29209276	   -353.84362621	    109.41717623	    119.44577074
      1.94339620	     -4.99394772	     -1.66046325	    225.84499413	     -2.48408201	      1.16303947	      0.72385361	     15.98752804	      2.64198026	     -1.75388278	     34.55195331	     18.02339983	     -5.25759906	      0.00000000	     16.93152737	     -5.02263522	      0.89613471	     75.57423387	     12.98614593	     -2.34951006	      0.00000000	    -11.13701698	      0.83927791	      1.74289335	     -6.88516658	    -13.73772361	    -12.35405377	     51.74462646	    119.74817918	   -370.19393436	    -16.56558767	   -354.02930370	    109.71072623	    119.50108842
      1.96226410	     -5.06859105	     -1.64439577	    225.68590089	     -2.48324393	      1.16354305	      0.72649133	     15.92924175	      2.41031407	     -1.51868296	     34.21804137	     17.62387549	     -5.05280325	      0.00000000	     16.99219796	     -4.88835599	      0.88477119	     75.68219075	     13.13126252	     -2.30319806	      0.00000000	    -11.06976787	      0.89123428	      1.48229761	     -6.61351847	    -13.64399756	    -12.07926243	     52.32330454	    119.74817918	   -370.25610804	    -16.77661471	   -354.00329459	    109.79947548	    119.52643490
      1.98113210	     -5.16762885	     -1.64233671	    225.40753867	     -2.48198886	      1.16381454	      0.72749173	     15.93418671	      2.23903301	     -1.33750770	     33.92122304	     17.36719622	     -4.98876429	      0.00000000	     17.03245419	     -4.72604187	      0.93916294	     76.02123297	     13.20957295	     -2.18047352	      0.00000000	    -11.11514439	      0.88874637	      1.24113897	     -6.57919542	    -13.55435020	    -11.81324471	     52.65809025	    119.74817918	   -370.25067608	    -16.86073914	   -353.97095415	    109.85322981	    119.55357907
      2.00000000	     -5.25660714	     -1.63591493	    225.15100412	     -2.48036166	      1.16391843	      0.72773946	     15.91956782	      2.10122409	     -1.13392177	     33.53965914	     17.10057134	     -4.92151661	      0.00000000	     17.05688340	     -4.62110210	      1.02457698	     76.33856733	     13.23886509	     -2.01192784	      0.00000000	    -11.12065758	      0.78240905	      1.02591317	     -6.63255908	    -13.41721755	    -11.53053272	     53.01562649	    119.74817918	   -370.33323959	    -16.87562695	   -353.97067482	    109.78209349	    119.58019863
      2.01886790	     -5.35169773	     -1.61751238	    224.88070823	     -2.47839570	      1.16389342	      0.72739402	     15.94710943	      1.99680302	     -1.02517565	     33.21603018	     16.96873001	     -4.86976971	      0.00000000	     17.08939858	     -4.55675205	      1.13684374	     76.59203678	     13.26513328	     -1.93074303	      0.00000000	    -11.15560159	      0.68479387	      0.91577735	     -6.66247365	    -13.22700360	    -11.35035692	     53.19346209	    119.74817918	   -370.39153506	    -16.84191495	   -353.93868730	    109.68152303	    119.59468573
      2.03773580	     -5.42173080	     -1.60419237	    224.70214329	     -2.47704898	      1.16371616	      0.72745730	     15.89126570	      1.88683346	     -0.92018289	     32.94579312	     16.89107594	     -4.81546818	      0.00000000	     17.15360025	     -4.50271884	      1.20624071	     76.83285500	     13.28890221	     -1.89101777	      0.00000000	    -11.12923457	      0.63313254	      0.86556939	     -6.67678646	    -13.10630387	    -11.24040904	     53.21954162	    119.74817918	   -370.34131841	    -16.81640519	   -353.92972504	    109.61341220	    119.60250887
      2.05660380	     -5.48363342	     -1.55905527	    224.51985234	     -2.47636084	      1.16423449	      0.72673834	     15.64333294	      2.02326396	     -0.44135753	     32.20311096	     16.63977156	     -4.87101243	      0.00000000	     17.23941313	     -4.55238878	      1.32490629	     76.92256502	     13.30389935	     -1.55776838	      0.00000000	    -11.13385964	      0.62012022	      0.93633107	     -6.54454640	    -13.22166694	    -10.61815182	     52.86196082	    119.74817918	   -370.04084003	    -16.79349477	   -353.70799275	    109.07988667	    119.71929879
      2.07547170	     -5.47186626	     -1.52530429	    224.38449433	     -2.47591848	      1.16426158	      0.72630061	     15.58789715	      1.99838654	     -0.33517158	     31.88222678	     16.54913720	     -4.80717788	      0.00000000	     17.34317678	     -4.57075408	      1.39388874	     76.99075574	     13.35466518	     -1.56071069	      0.00000000	    -11.15389698	      0.52478477	      0.90447323	     -6.46745665	    -13.18216172	    -10.53168291	     52.91543465	    119.74817918	   -369.97341817	    -16.87147343	   -353.69970375	    109.05779606	    119.73848093
      2.09433960	     -5.45492245	     -1.47702834	    224.24347069	     -2.47552874	      1.16430547	      0.72593169	     15.52487248	      2.01901838	     -0.17274311	     31.57137035	     16.44823235	     -4.73137727	      0.00000000	     17.41547167	     -4.58017220	      1.49085374	     76.95262750	     13.37326625	     -1.54142207	      0.00000000	    -11.13884120	      0.44519076	      0.84338799	     -6.41930393	    -13.15001630	    -10.38743969	     52.94272212	    119.74817918	   -369.89258754	    -16.94748345	   -353.62929996	    108.99032635	    119.74817918
      2.11320750	     -5.44764233	     -1.47815681	    224.16039386	     -2.47582989	      1.16436648	      0.72585644	     15.50256373	      2.00829750	     -0.16281090	     31.53907010	     16.44287520	     -4.72829813	      0.00000000	     17.43395851	     -4.61836731	      1.53631101	     76.97341735	     13.37659113	     -1.54436339	      0.00000000	    -11.13584477	      0.39558050	      0.79898381	     -6.42950200	    -13.17010827	    -10.38240473	     52.94437328	    119.74817918	   -369.87117426	    -16.94636369	   -353.61990852	    108.98075149	    119.74817918
      2.13207550	     -5.46204687	     -1.41717853	    223.94358354	     -2.47695787	      1.16481580	      0.72549520	     15.19568207	      2.26192606	      0.34307660	     30.96567057	     16.32601267	     -4.99424071	      0.00000000	     17.49957920	     -4.72293131	      1.53001484	     77.07921063	     13.33952500	     -1.50890035	      0.00000000	    -11.15999834	      0.36723958	      0.93455025	     -6.46236502	    -13.46222817	     -9.58580106	     52.96827483	    119.74817918	   -369.65035141	    -17.06639612	   -353.41470528	    108.74276574	    119.74817918
      2.15094340	     -5.41831546	     -1.39543305	    223.83664575	     -2.47815556	      1.16501186	      0.72553333	     15.16134278	      2.30063139	      0.33227861	     30.94490204	     16.31634006	     -4.99031728	      0.00000000	     17.52831859	     -4.72177342	      1.55621711	     77.11749927	     13.34661912	     -1.51166896	      0.00000000	    -11.19763194	      0.31405466	      0.86896316	     -6.49844747	    -13.47160236	     -9.59004585	     52.96783909	    119.74817918	   -369.64349052	    -17.06067990	   -353.41471530	    108.73801028	    119.74817918
      2.16981130	     -5.29907326	     -1.34643395	    223.66946215	     -2.47958808	      1.16526895	      0.72521222	     15.07020595	      2.36911275	      0.44845017	     30.62470842	     16.23993499	     -4.93589002	      0.00000000	     17.64006408	     -4.68550093	      1.60521044	     77.16403969	     13.38224838	     -1.50820162	      0.00000000	    -11.20585422	      0.18111200	      0.82196570	     -6.47886017	    -13.38548021	     -9.51013885	     53.19913972	    119.74817918	   -369.70883676	    -17.12539698	   -353.55086379	    108.74416623	    119.74817918
